HIERARCHY
ROOT hip
{
  OFFSET 0 0 0
  CHANNELS 6 Xposition Yposition Zposition Zrotation Yrotation Xrotation
  JOINT abdomen
  {
    OFFSET 0 20.6881 -0.73152
    CHANNELS 3 Zrotation Xrotation Yrotation
    JOINT chest
    {
      OFFSET 0 11.7043 -0.48768
      CHANNELS 3 Zrotation Xrotation Yrotation
      JOINT neck
      {
        OFFSET 0 22.1894 -2.19456
        CHANNELS 3 Zrotation Xrotation Yrotation
        JOINT head
        {
          OFFSET -0.24384 7.07133 1.2192
          CHANNELS 3 Zrotation Xrotation Yrotation
          JOINT leftEye
          {
            OFFSET 4.14528 8.04674 8.04672
            CHANNELS 3 Zrotation Xrotation Yrotation
            End Site
            {
              OFFSET 1 0 0
            }
          }
          JOINT rightEye
          {
            OFFSET -3.6576 8.04674 8.04672
            CHANNELS 3 Zrotation Xrotation Yrotation
            End Site
            {
              OFFSET 1 0 0
            }
          }
        }
      }
      JOINT rCollar
      {
        OFFSET -2.68224 19.2634 -4.8768
        CHANNELS 3 Zrotation Xrotation Yrotation
        JOINT rShldr
        {
          OFFSET -8.77824 -1.95073 1.46304
          CHANNELS 3 Zrotation Xrotation Yrotation
          JOINT rForeArm
          {
            OFFSET -28.1742 -1.7115 0.48768
            CHANNELS 3 Zrotation Xrotation Yrotation
            JOINT rHand
            {
              OFFSET -22.5879 0.773209 7.07136
              CHANNELS 3 Zrotation Xrotation Yrotation
              JOINT rThumb1
              {
                OFFSET -1.2192 -0.487915 3.41376
                CHANNELS 3 Zrotation Xrotation Yrotation
                JOINT rThumb2
                {
                  OFFSET -3.37035 -0.52449 3.41376
                  CHANNELS 3 Zrotation Xrotation Yrotation
                  End Site
                  {
                    OFFSET -1.78271 -1.18214 1.43049
                  }
                }
              }
              JOINT rIndex1
              {
                OFFSET -7.75947 0.938293 5.60832
                CHANNELS 3 Zrotation Xrotation Yrotation
                JOINT rIndex2
                {
                  OFFSET -2.54057 -0.884171 1.56538
                  CHANNELS 3 Zrotation Xrotation Yrotation
                  End Site
                  {
                    OFFSET -1.62519 -0.234802 1.16502
                  }
                }
              }
              JOINT rMid1
              {
                OFFSET -8.24714 1.18213 3.41376
                CHANNELS 3 Zrotation Xrotation Yrotation
                JOINT rMid2
                {
                  OFFSET -3.10165 -0.590103 1.0647
                  CHANNELS 3 Zrotation Xrotation Yrotation
                  End Site
                  {
                    OFFSET -2.48547 -0.328903 0.83742
                  }
                }
              }
              JOINT rRing1
              {
                OFFSET -8.82822 0.546677 1.51678
                CHANNELS 3 Zrotation Xrotation Yrotation
                JOINT rRing2
                {
                  OFFSET -2.60934 -0.819778 -0.0198488
                  CHANNELS 3 Zrotation Xrotation Yrotation
                  End Site
                  {
                    OFFSET -2.33842 -0.294052 0.168128
                  }
                }
              }
              JOINT rPinky1
              {
                OFFSET -8.27202 -0.0477905 -0.4584
                CHANNELS 3 Zrotation Xrotation Yrotation
                JOINT rPinky2
                {
                  OFFSET -1.82734 -0.647385 -0.700984
                  CHANNELS 3 Zrotation Xrotation Yrotation
                  End Site
                  {
                    OFFSET -1.69225 -0.51767 -0.607171
                  }
                }
              }
            }
          }
        }
      }
      JOINT lCollar
      {
        OFFSET 2.68224 19.2634 -4.8768
        CHANNELS 3 Zrotation Xrotation Yrotation
        JOINT lShldr
        {
          OFFSET 8.77824 -1.95073 1.46304
          CHANNELS 3 Zrotation Xrotation Yrotation
          JOINT lForeArm
          {
            OFFSET 28.1742 -1.7115 0.48768
            CHANNELS 3 Zrotation Xrotation Yrotation
            JOINT lHand
            {
              OFFSET 22.5879 0.773209 7.07136
              CHANNELS 3 Zrotation Xrotation Yrotation
              JOINT lThumb1
              {
                OFFSET 1.2192 -0.487915 3.41376
                CHANNELS 3 Zrotation Xrotation Yrotation
                JOINT lThumb2
                {
                  OFFSET 3.37035 -0.52449 3.41376
                  CHANNELS 3 Zrotation Xrotation Yrotation
                  End Site
                  {
                    OFFSET 1.78271 -1.18214 1.43049
                  }
                }
              }
              JOINT lIndex1
              {
                OFFSET 7.75947 0.938293 5.60832
                CHANNELS 3 Zrotation Xrotation Yrotation
                JOINT lIndex2
                {
                  OFFSET 2.54057 -0.884171 1.56538
                  CHANNELS 3 Zrotation Xrotation Yrotation
                  End Site
                  {
                    OFFSET 1.62519 -0.234802 1.16502
                  }
                }
              }
              JOINT lMid1
              {
                OFFSET 8.24714 1.18213 3.41376
                CHANNELS 3 Zrotation Xrotation Yrotation
                JOINT lMid2
                {
                  OFFSET 3.10165 -0.590103 1.0647
                  CHANNELS 3 Zrotation Xrotation Yrotation
                  End Site
                  {
                    OFFSET 2.48547 -0.328903 0.83742
                  }
                }
              }
              JOINT lRing1
              {
                OFFSET 8.82822 0.546677 1.51678
                CHANNELS 3 Zrotation Xrotation Yrotation
                JOINT lRing2
                {
                  OFFSET 2.60934 -0.819778 -0.0198488
                  CHANNELS 3 Zrotation Xrotation Yrotation
                  End Site
                  {
                    OFFSET 2.33842 -0.294052 0.168128
                  }
                }
              }
              JOINT lPinky1
              {
                OFFSET 8.27202 -0.0477905 -0.4584
                CHANNELS 3 Zrotation Xrotation Yrotation
                JOINT lPinky2
                {
                  OFFSET 1.82734 -0.647385 -0.700984
                  CHANNELS 3 Zrotation Xrotation Yrotation
                  End Site
                  {
                    OFFSET 1.69225 -0.51767 -0.607171
                  }
                }
              }
            }
          }
        }
      }
    }
  }
  JOINT rButtock
  {
    OFFSET -8.77824 4.35084 1.2192
    CHANNELS 3 Zrotation Xrotation Yrotation
    JOINT rThigh
    {
      OFFSET 0 -1.70687 -2.19456
      CHANNELS 3 Zrotation Xrotation Yrotation
      JOINT rShin
      {
        OFFSET 0 -36.8199 0.73152
        CHANNELS 3 Zrotation Xrotation Yrotation
        JOINT rFoot
        {
          OFFSET 0.73152 -45.1104 -5.12064
          CHANNELS 3 Zrotation Xrotation Yrotation
          End Site
          {
            OFFSET -1.1221 -3.69964 12.103
          }
        }
      }
    }
  }
  JOINT lButtock
  {
    OFFSET 8.77824 4.35084 1.2192
    CHANNELS 3 Zrotation Xrotation Yrotation
    JOINT lThigh
    {
      OFFSET 0 -1.70687 -2.19456
      CHANNELS 3 Zrotation Xrotation Yrotation
      JOINT lShin
      {
        OFFSET 0 -36.8199 0.73152
        CHANNELS 3 Zrotation Xrotation Yrotation
        JOINT lFoot
        {
          OFFSET -0.73152 -45.1104 -5.12064
          CHANNELS 3 Zrotation Xrotation Yrotation
          End Site
          {
            OFFSET 1.1221 -3.69964 12.103
          }
        }
      }
    }
  }
}
MOTION
Frames:	8
Frame Time:	0.00833333
24.8213 83.7392 14.565700000000001 -0.0 0.0 0.0 -0.0 0.0 -0.0 0.0 -0.0 -0.0 12.086107 9.490159 98.819281 -7.514184 13.392728 -98.942746 -0.0 0.0 -0.0 -0.0 0.0 -0.0 -80.1661 68.371792 83.260848 16.636411 26.557893 0.696409 -7.590721 0.006229 -27.822719 140.800579 -59.781055 122.09894 -5.433768 5.264911 1.077842 6.667183 -7.028697 -1.538446 -22.782309 27.208726 16.277215 -9.503721 15.108262 -3.301946 1.280764 -3.803196 -0.679863 -114.09265 60.092261 101.419358 -74.840941 72.961123 92.827929 -147.692176 -40.729258 -163.285738 -146.226238 15.470244 -142.747894 -144.314251 9.387871 -141.04541 152.135386 14.0844 -157.564787 -40.889378 -59.029893 -20.381964 -175.701057 -61.636997 -172.521394 6.583538 20.523973 -0.482113 -71.831195 -48.263725 -25.791675 137.899719 12.756806 -106.267751 64.086421 43.039976 -52.301274 -8.544786 -12.083321 13.725843 0.057679 0.167876 -0.032027 36.945741 54.796356 -28.377666 0.014868 -1.323148 0.415899 4.167193 33.134489 -5.83039 -5.663198 16.872151 -5.087837 172.462172 72.538378 145.424329 -0.0 0.0 -0.0 -0.0 -2.27635 -180.0 -7.412919 -10.146615 -70.099789 172.263314 63.423428 122.51041 -0.0 0.0 -0.0 -0.0 -2.27635 -180.0 7.412919 -10.146615 70.099789 106.638758 -41.882666 -161.271402
24.0078 83.9151 14.2054 -0.0 -0.0 -0.0 -0.0 0.0 -0.0 0.0 0.0 0.0 -8.127505 9.324006 -75.254595 11.06814 5.502965 75.384894 0.0 0.0 0.0 0.0 0.0 0.0 -80.1661 68.371792 83.260848 16.636043 26.569078 0.697254 158.073662 42.726932 178.691411 -147.086791 64.321002 124.189934 178.619005 -18.760041 89.038626 -142.596898 12.330543 75.548631 -145.338335 -6.264511 118.677783 111.546502 -74.060531 48.97906 173.123457 -66.297779 137.614274 -4.706051 20.46083 7.481811 -74.840941 72.961123 92.827929 10.827938 29.514625 -12.424321 -136.9593 -9.523921 -134.262679 -22.607117 -41.221846 -26.232836 80.1661 68.371792 -83.260848 -16.926784 14.142456 0.162407 -158.696598 43.419875 -174.650309 160.172369 53.912504 -135.074761 166.631339 -4.304864 -89.77151 -142.545066 -46.331101 -94.027228 151.353117 -17.158427 -121.133109 173.827921 -53.117446 -112.067958 -22.68027 -59.676038 -0.651715 165.03918 -4.841363 -140.469286 145.119466 0.267775 179.212461 143.032799 -18.579271 176.468414 135.820882 -11.891747 133.184746 22.519329 -41.289534 26.094385 -180.0 75.749642 -0.0 -180.0 75.749642 -0.0 7.244654 4.663875 81.763736 -6.246262 -20.472446 -90.186807 -180.0 75.749642 -0.0 -180.0 75.749642 -0.0 -7.244654 4.663875 -81.763736 124.75471 -66.440334 -136.267185
23.2427 83.9986 13.8412 0.0 -0.0 -0.0 -0.0 0.0 -0.0 0.0 0.0 -0.0 -6.347031 4.184487 -44.142007 7.462622 1.429637 44.280878 0.0 -0.0 -0.0 0.0 -0.0 -0.0 -80.1661 68.371792 83.260848 -74.088902 86.559311 93.605397 175.121904 33.591537 -177.217025 -12.532559 35.799789 2.786118 178.619005 -18.760041 89.038626 -89.167271 15.174377 32.774439 -90.225558 41.072425 75.796697 -167.915078 -24.528236 124.649946 -10.975806 25.789868 7.640203 -166.279171 -5.857162 144.881141 -145.099706 -1.521107 -178.650165 17.491747 -26.749436 -12.915789 -124.851156 -29.038378 -122.621388 3.794787 -3.06394 -0.730774 9.651699 34.836178 -11.199233 162.949741 -40.04376 174.457175 -18.010775 82.813485 14.463482 6.550043 20.426597 -0.473738 176.927678 -14.532472 -89.65859 -178.665377 -17.584957 -97.887391 1.39698 2.231723 -0.807408 -3.283455 -5.009364 1.026261 -3.77609 -11.559351 1.812841 5.153949 13.718895 -3.13162 0.021291 -1.725169 0.542387 167.045112 -39.527973 -176.072965 150.577948 31.033784 146.363897 79.302718 -51.765286 80.755984 -180.0 75.749642 -0.0 -180.0 73.473292 -180.0 -5.864878 -4.414665 -123.647879 -77.156517 47.43578 8.031252 -180.0 75.749642 -0.0 -180.0 73.473292 -180.0 7.141193 -6.527402 102.138307 151.314061 -27.229583 -98.997262
22.5414 84.0155 13.4926 -0.0 -0.0 -0.0 -0.0 0.0 -0.0 0.0 -0.0 0.0 -8.144362 10.101976 -79.678508 11.382902 6.215336 79.779518 0.0 0.0 0.0 0.0 0.0 0.0 -80.1661 68.371792 83.260848 -155.930584 13.928641 178.192843 28.709728 86.043531 -25.272653 -6.430749 20.078891 0.444375 -169.319662 -7.000857 89.921973 176.959374 -19.053024 93.982132 159.641557 -69.973343 102.396332 -2.149856 27.763345 10.404249 -169.08961 -33.247392 145.374931 -86.756917 62.251756 81.150723 -0.006679 3.473835 1.091901 -2.793519 26.241566 3.294222 -23.391137 -36.34947 -22.493225 27.524018 81.691135 8.168792 9.651699 34.836178 -11.199233 165.513411 -14.495498 177.246077 -15.374174 -54.681697 23.829913 -175.348106 -2.327444 -145.138986 171.653675 -9.336187 -89.949478 86.773788 9.367082 -32.012185 0.327682 0.529888 -0.186114 83.05028 48.047868 -55.358168 -5.590664 -17.377271 2.453477 175.65016 -30.873846 -142.95393 0.035878 5.254226 -1.653575 2.710879 26.055018 -2.871353 -27.13312 80.263659 -10.028119 -2.605425 3.917254 2.230622 -180.0 75.749642 -0.0 -180.0 75.749642 -0.0 3.093813 0.300867 27.366401 -178.423293 -38.634166 39.543603 -180.0 75.749642 -0.0 -180.0 75.749642 -0.0 2.74577 11.919568 137.880989 -104.809707 -26.826142 158.108151
21.9128 83.9218 13.112099999999998 -0.0 -0.0 -0.0 -0.0 0.0 -0.0 0.0 -0.0 0.0 -8.144362 10.101976 -79.678508 11.382902 6.215336 79.779518 0.0 0.0 0.0 0.0 0.0 0.0 -80.1661 68.371792 83.260848 -155.930584 13.928641 178.192843 -161.558497 -14.308271 160.772039 81.443112 -70.635177 66.319228 -6.581133 6.344846 1.36571 -122.548637 -17.409205 108.470754 -100.824001 37.73392 85.162146 170.925016 -61.850425 113.448003 -36.036059 51.723116 29.832321 -171.797612 -31.008069 147.11628 -145.119466 0.267753 -179.212454 -137.899864 -42.547219 -170.696345 -26.564207 -38.860901 -25.60587 -23.86909 -42.054705 -23.189709 9.651699 34.836178 -11.199233 165.513411 -14.495498 177.246077 -44.262742 73.202744 42.538375 21.29909 50.931835 -8.325562 2.890031 2.827845 -0.513516 -8.169689 -10.014022 4.383835 173.762554 -52.872945 -119.8247 139.958713 1.260116 -112.458583 -0.541241 -1.589941 0.294737 44.619541 58.164401 -35.492574 145.119466 0.267775 179.212461 145.725487 8.019419 -179.861532 144.260424 9.237701 141.009589 125.860216 -27.607444 125.889069 -180.0 75.749642 -0.0 -180.0 75.749642 -0.0 3.093813 0.300867 27.366401 -177.517899 -38.148311 39.844119 -180.0 75.749642 -0.0 -180.0 75.749642 -0.0 2.74577 11.919568 137.880989 -125.013996 -18.562674 143.958933
21.4005 83.7019 12.693999999999999 -0.0 -0.0 -0.0 -0.0 0.0 -0.0 0.0 -0.0 0.0 -8.144362 10.101976 -79.678508 11.382902 6.215336 79.779518 0.0 0.0 0.0 0.0 0.0 0.0 -80.1661 68.371792 83.260848 -155.930584 13.928641 178.192843 22.661753 -3.288413 -15.948734 -145.682988 65.060928 122.951959 -2.890031 2.827845 0.513516 -20.08426 17.95744 19.080383 -121.826156 24.678784 102.844457 -156.188057 -10.060029 125.486176 1.280764 -3.803196 -0.679863 -166.886952 -5.872697 143.2162 0.004873 1.771387 0.556475 0.871901 -38.456583 -5.000798 -23.391137 -36.34947 -22.493225 -24.057803 -42.002523 -23.237358 80.1661 68.371792 -83.260848 72.229525 86.566453 -91.742579 89.844026 -76.130815 115.094564 -77.847537 -70.466596 -62.889207 -11.110121 -11.092107 0.639674 69.415903 32.634194 -59.240903 8.571718 12.508866 -5.450041 -76.847051 -62.700019 -37.258554 160.826363 -7.141801 -143.31627 40.057437 58.611319 -37.328428 145.122644 1.080631 179.467798 143.916373 -11.997269 177.369423 1.203484 -3.047547 1.116064 7.421117 -17.60206 6.566316 -180.0 75.749642 -0.0 -180.0 75.749642 -0.0 3.093813 0.300867 27.366401 -178.423293 -38.634166 39.543603 -180.0 75.749642 -0.0 -180.0 75.749642 -0.0 2.74577 11.919568 137.880989 -104.809707 -26.826142 158.108151
21.0302 83.4643 12.2692 -0.0 -0.0 -0.0 -0.0 0.0 -0.0 0.0 -0.0 0.0 -8.144362 10.101976 -79.678508 11.382902 6.215336 79.779518 0.0 0.0 0.0 0.0 0.0 0.0 -80.1661 68.371792 83.260848 -155.929134 14.027111 178.186511 -163.87112 82.634328 166.996111 -2.951065 9.430405 -0.08001 83.25393 -50.258079 33.616048 -24.027605 -10.46288 -17.189371 -138.493513 4.896353 114.8648 -152.249063 -12.074952 124.143138 -0.057679 0.167876 0.032027 -171.08625 -18.964329 144.261226 0.004873 1.771387 0.556475 -158.253463 -76.072307 -170.689496 1.134951 3.04054 1.043633 -171.179091 73.825879 -147.061501 80.1661 68.371792 -83.260848 72.229525 86.566453 -91.742579 89.844026 -76.130815 115.094564 -77.847537 -70.466596 -62.889207 -51.059793 -41.203951 -12.856726 4.193385 -63.612175 41.580327 27.421557 30.63922 -20.098782 176.320045 -21.360181 -117.028232 -23.903801 -61.333833 -1.399383 162.695815 0.940324 -139.720513 74.840941 72.961123 -92.827929 124.498927 -63.925264 141.026148 23.391137 -36.34947 22.493225 130.778975 -29.451769 128.724381 -180.0 75.749642 -0.0 -180.0 75.749642 -0.0 7.244654 4.663875 81.763736 -149.788429 -27.843677 103.43897 -180.0 75.749642 -0.0 -180.0 75.749642 -0.0 -7.510295 6.347106 -96.640747 0.204279 45.411388 87.300173
20.8089 83.2633 11.88 -0.0 -0.0 -0.0 -0.0 0.0 -0.0 0.0 -0.0 0.0 -8.144362 10.101976 -79.678508 11.382902 6.215336 79.779518 0.0 0.0 0.0 0.0 0.0 0.0 -80.1661 68.371792 83.260848 -155.929037 14.033718 178.186086 44.497298 -82.15997 6.366348 173.383372 -8.468983 144.743093 -178.927535 -16.453687 89.421826 -172.430246 -8.894427 94.728214 -0.327682 0.529888 0.186114 92.775195 -61.349608 49.941511 -167.375306 -28.008469 145.269175 5.889519 0.620519 1.554345 -77.742735 72.902851 95.870145 91.809479 86.28178 -82.850889 -149.198149 25.859061 -145.26249 5.718563 3.235261 -1.571666 80.1661 68.371792 -83.260848 72.229525 86.566453 -91.742579 89.844026 -76.130815 115.094564 -77.847537 -70.466596 -62.889207 7.758532 7.439094 -1.682075 129.174236 -27.945231 -111.587904 50.386399 40.826202 -40.02487 -77.888883 -71.282221 -34.716502 0.571049 1.648356 -0.322148 44.40638 58.304872 -35.260408 -0.004873 1.771387 -0.556475 165.628228 -56.854372 -179.994011 134.695017 -14.105438 132.114119 113.069041 -41.461122 114.41754 -180.0 75.749642 -0.0 -180.0 75.749642 -0.0 7.244654 4.663875 81.763736 -149.788429 -27.843677 103.43897 -180.0 75.749642 -0.0 -180.0 75.749642 -0.0 -7.510295 6.347106 -96.640747 0.204279 45.411388 87.300173
